<?xml version="1.0" encoding="UTF-8" standalone="no"?>
<!DOCTYPE svg PUBLIC "-//W3C//DTD SVG 1.1//EN" "http://www.w3.org/Graphics/SVG/1.1/DTD/svg11.dtd">
<svg width="100%" height="100%" viewBox="0 0 1024 1024" version="1.1" xmlns="http://www.w3.org/2000/svg" xmlns:xlink="http://www.w3.org/1999/xlink" xml:space="preserve" xmlns:serif="http://www.serif.com/" style="fill-rule:evenodd;clip-rule:evenodd;stroke-linejoin:round;stroke-miterlimit:2;">
    <g transform="matrix(-0.39603,0,0,0.39603,714.767593,309.232407)">
        <g transform="matrix(2.666667,0,0,2.666667,-1691.401017,-1689.819288)">
            <path d="M537.47,1157.15L540,1157L541,1156L542,1156L544.551,1155C553.795,1150.2 565.858,1148.17 575.106,1144.54L577,1143L578,1143L579.551,1142C622.868,1129.56 659.383,1110.24 709.256,1105.49C708.919,1104.43 709.792,1104.38 710.96,1104.47C712.129,1104.55 713.69,1103.86 713.353,1103.58C717.679,1099.99 728.96,1103.14 735.027,1102.55L777.978,1102.55C780.592,1102.76 783.629,1102.79 785.935,1102.37C788.241,1101.96 790.384,1100.63 790.547,1099.06C764.36,1058.47 724.421,1025.9 709.529,972.847C706.923,967.198 704.144,960.237 702.528,954.844C701.198,947.919 696.236,942.928 693.459,938.696C688.073,931.056 682.572,922.619 679.52,913.818C677.128,907.954 676.806,898.469 674.499,893.767C675.411,887.011 672.632,882.535 673.543,877.09C673.64,869.425 674.098,860.336 672.435,854.832C670.773,849.328 666.082,846.908 657.635,852.588C655.917,856.383 646.888,858.434 639.246,858.454C631.605,858.475 626.045,857.319 631.33,852.441C634.036,851.187 643.541,850.885 644.734,852.482C653.167,851.291 659.894,846.355 664.36,842.417C669.641,838.073 674.644,832.101 679.362,828.415C682.843,824.327 684.99,817.269 688.403,814.375C689.078,808.737 689.776,807.38 690.855,808.481C691.933,809.582 692.453,812.641 691.464,816.875C690.337,822.628 687.376,828.013 685.51,831.748C681.64,837.844 679.863,847.549 678.459,854.897C668.428,918.169 709.341,929.901 718.47,975.149C722.429,977.034 726.217,981.715 728.921,983.545C730.004,983.18 730.457,983.479 730.957,984.063C731.457,984.648 731.992,984.429 731.909,984.457L733,986L733.449,987C741.275,992.877 749.192,1000.54 755.773,1006.5L757,1007L758.449,1008C762.025,1011.2 773.469,1014.92 783.681,1016.21C793.893,1017.5 803.957,1016.49 804.532,1012.14L803,1012L803.551,1011C798.05,1006.88 790.077,1002.9 784.11,1000.46L783,1001L783,1000L780.449,1000C777.318,1000.01 773.582,995.186 771.601,991.273C769.619,987.36 769.855,984.899 777.911,987.543L781.449,987C783.743,987.784 789.156,987.945 789.504,989.239C809.366,991.504 821.052,1003.38 836.912,1008.54L838.449,1009C847.045,1014.11 858.822,1017.93 867.784,1021.51C873.491,1024.16 886.371,1026.22 893.258,1023.49C896.916,1020.61 907.131,1022.19 908.473,1018.28C912.065,1017.76 914.247,1014.55 917.974,1015.55C921.226,1015 926.599,1010.91 928.848,1007.14C931.098,1003.37 930.171,998.823 922.922,998.455C909.107,1003.38 884.889,1003.9 879.394,992.616L878,993L878,992L876.551,991C872.556,987.866 873.623,986.087 876.455,984.974C879.287,983.862 883.096,983.914 884.764,985.497C886.509,985.497 890.782,985.551 891,985.551C896.498,985.551 903.955,985.535 908.13,985.535C915.847,981.245 932.397,984.275 937.361,978.416C944.304,975.735 950.667,971.388 957.198,969.514C962.163,966.91 966.743,962.408 974.167,963.525C976.784,960.298 984.142,960.278 988.945,960.548C992.841,961.111 1000.54,959.202 1001.54,961.3C1006.24,963.48 1014.35,964.059 1016.62,967.395C1022.55,969.03 1027.41,973.828 1033.99,973.551C1040.33,974.046 1047.96,973.399 1049.43,970.338C1053.04,969.552 1052.98,966.708 1051.78,964.666C1050.58,962.623 1047.95,960.514 1047.15,960.469C1025.67,948.327 1006.08,923.704 967.771,936.499C965.294,938.135 960.331,939.214 957.854,939.469C954.18,941.293 945.637,939.95 941.963,940.451L942,940L941.551,940C933.941,935.122 939.159,934.869 946.801,934.313C954.443,933.756 964.509,932.908 964.551,929.012L965.551,928C976.22,919.734 991.488,907.047 1010.8,914.515C1016.33,916.561 1027.37,914.938 1033.07,915.546C1041.22,912.371 1050.57,908.669 1055.41,903.369C1059.74,898.414 1064.83,893.087 1069.28,889.476C1075.18,887.811 1080.11,883.633 1085.26,882.484C1087.81,878.498 1096.8,879.633 1101.97,879.55C1114.84,881.398 1123.03,888.76 1132.83,892.524C1140.44,894.487 1147.68,893.601 1151.15,891.082C1154.62,888.563 1154.71,883.383 1149.22,878.497L1148,879L1148,878L1147,878L1147,877L1146,877L1146,876L1144,876L1144,875L1143,875L1143,874L1142,874L1142,873L1140,873L1140.55,872C1137.5,869.206 1132.6,865.662 1130.23,863.499L1129,864L1129.55,863C1126.1,862.339 1122.97,858.351 1121.13,857.465L1120,858L1120,857L1118,857L1118,856L1115,855L1114,855L1114.55,854C1110.22,853.87 1105.6,851.001 1103.06,850.453L1101,851L1101.55,850C1073.46,846.391 1062.19,860.249 1038.01,859.449L1034,860L1034,859L1033.55,859C1021.34,856.155 1010.06,851.12 1007.5,839.772C1014.26,839.839 1023.23,846.127 1032.16,845.525C1033.16,844.854 1035.89,844.49 1038.58,844.463C1041.27,844.436 1043.33,844.552 1043.56,845.331C1060.91,841.565 1075.68,834.015 1087.19,825.517L1088.55,824C1096.15,817.892 1104.45,812.482 1115.05,810.548L1117,809L1118.55,809C1120.97,805.772 1133.37,807.479 1135.89,808.539L1139,808L1141,809L1144,810L1147.55,811C1148.42,810.845 1149.04,811.399 1149.95,811.568C1150.87,811.738 1151.23,811.062 1150.7,811.538C1151.49,811.787 1152.97,813.045 1154.07,813.367C1155.17,813.689 1155.73,813.219 1155.55,813.682C1158.97,814.032 1162.69,817.423 1164.93,817.547C1169.55,818.424 1175.97,819.281 1178.88,820.538L1181.55,820C1201.33,817.653 1212.91,807.167 1223.25,796.489L1224.55,795C1224.58,794.31 1225.07,794.133 1225.65,793.633C1226.24,793.133 1226.58,791.802 1226.21,791.493L1227.55,791C1228.29,786.204 1224.61,784.846 1221.27,785.388C1217.94,785.93 1214.08,787.934 1213.67,788.562L1213,790L1211,791L1209.45,792C1166.22,806.955 1156.35,770.203 1126.99,763.449C1120.75,765.124 1110.22,764.029 1103.98,764.45L1103.45,764C1087.37,765.336 1075.43,770.914 1062.74,774.512C1060.94,776.477 1053.72,774.89 1051.91,775.456L1052,775L1050.55,775C1037.72,771.425 1024.55,766.733 1019.4,756.62C1029.39,756.019 1039.03,763.68 1052,761.551C1055.58,762.088 1062.9,760.234 1063.55,762.314C1074.23,761.332 1083.4,757.327 1091.1,754.542L1092,753L1093.55,752C1101.03,749.516 1105.44,743.566 1115.16,744.528C1122.53,737.53 1132.14,744.685 1139.89,744.539C1147.47,748.286 1157.29,750.943 1166.84,751.527C1172.51,755.194 1188.71,753.796 1193.13,751.535C1201.25,751.74 1205.9,746.989 1211.11,745.54C1220.56,744.346 1224.21,735.8 1229.31,731.453C1234.09,729.354 1235.81,722.315 1238.44,719.336C1239.56,715.311 1242.38,710.906 1243.51,708.217C1245.18,705.09 1247.6,700.494 1247.55,696.993C1245.75,688.497 1240.73,687.897 1236.59,690.451C1232.45,693.006 1228.21,698.375 1226.57,700.653C1216.92,708.42 1203.82,712.954 1185.04,710.451C1182.97,710.451 1178.61,710.452 1178.05,710.452C1152.89,705.775 1134.2,694.542 1124.38,675.604L1123,676L1123,675L1122,675L1122.55,674C1107.01,649.103 1063.49,640.015 1021.75,649.509C1020.2,651.385 1015.12,651.772 1012.82,651.48C1011.39,653.475 1004.32,651.883 1002.89,652.46L1003,652L999.551,652C991.929,648.294 982.192,644.95 979.393,637.614C991.602,640.203 1016.78,642.441 1029.11,637.54L1030,637L1031.55,636C1033.37,635.08 1036.36,634.239 1037.95,634.548L1039,633L1040,633L1041.55,632C1044.92,629.179 1049.82,627.117 1053.13,625.536L1054,624L1055,624L1056.55,623C1056.42,622.155 1056.79,622.076 1057.54,621.745C1058.3,621.415 1058.56,621.274 1058.67,621.441L1060,620L1061,619L1062.55,618C1063.89,616.944 1066.2,615.638 1067.03,615.55L1068,614L1069,614L1071,612L1072,612L1073,611L1074,611L1075.55,610C1083.21,608.876 1092.64,604.761 1099.9,607.541L1103,608L1107,608L1109.45,609C1110.95,609.898 1114.45,612.161 1115.98,611.55C1122.3,614.521 1128.93,618.457 1134.91,620.542L1137.55,621C1144.86,620.395 1155.6,622.67 1160.13,620.536L1161,619L1162,619L1163,618L1164,618L1165,617L1166,617L1167.55,616C1174.44,611.963 1173.7,608.045 1170.36,605.824C1167.02,603.604 1160.51,602.531 1156,603.449C1146.2,601.576 1140.13,595.195 1133.31,591.542C1127.77,586.089 1120.4,581.036 1113.17,578.477C1106,576.365 1099.3,572.195 1090.99,572.449C1083.42,572.449 1074.13,572.477 1067.83,572.477C1064.17,575.703 1055.32,575.631 1052.66,578.567C1045.17,581.037 1037.25,584.31 1031.71,587.53C986.356,617.282 946.816,577.254 903.03,572.45C896.495,572.45 888.482,572.503 883.236,572.503C881.661,567.701 884.826,566.729 889.097,565.554C893.369,564.379 898.811,563.961 901.3,562.462C903.854,560.556 911.502,562.088 914.056,561.548C917.117,561.565 920.993,562.389 921.622,563.401C934.743,565.336 945.394,571.449 961.262,569.484C960.925,568.429 961.792,568.384 962.96,568.469C964.129,568.553 965.549,567.773 965.212,567.492L966,568L967,567L969,567L970.551,566C973.605,564.942 977.525,563.607 979.172,562.523L978.551,562C973.434,557.738 975.814,555.69 978.902,555.332C981.99,554.975 984.968,555.827 980.733,560.518L982,561L983,560L984,560L985.551,559C986.786,558.49 988.64,557.473 988.931,557.546L990,556L991,556L992,555L993,555L994,554L997,554L998,553C1002.46,553 1008.68,553.503 1011.78,553.503C1012.02,553.979 1013.09,554.345 1014.01,554.515C1014.92,554.684 1015.84,554.702 1015.94,554.547C1016.16,555.361 1017.7,555.456 1019.03,555.549C1020.35,555.642 1021.2,554.749 1020.67,555.563L1023.45,557C1028.78,558.218 1032.82,556.577 1033.73,554.107C1034.63,551.637 1033.07,547.801 1030.12,546.463L1029,547L1029,546L1027,545L1026,545L1026,544L1024,544L1024,543L1022,543L1022.55,542C1020.39,541.086 1016.76,538.304 1014.98,538.45L1014,539L1014.55,538C1010.46,537.628 1006.11,534.431 1003,534.449L1002,535L1002.55,534C991.694,532.084 984.847,535.584 978.004,536.449C969.998,535.324 967.378,541.197 960.03,539.45C952.943,540.347 946.717,538.915 944.238,536.503C938.331,536.566 934.78,532.477 931.226,531.498C882.576,494.993 819.754,557.217 776.101,521.459C771.32,523.212 761.755,521.986 756.973,522.45L756.449,522C747.554,523.752 738.424,525.583 729.863,526.467C725.819,528.266 717.012,526.962 712.967,527.45L713.551,527C713.163,519.079 722.857,519.363 733.825,519.335C744.793,519.307 756.986,519.196 759.501,512.229C765.591,508.298 764.955,503.027 761.685,500.197C758.415,497.368 751.702,496.292 746.693,499.543C739.004,505.065 733.563,495.691 723.938,498.453C716.782,498.04 712.461,493.287 704.993,494.449C694.344,493.083 688.543,498.07 681.879,499.463C674.143,501.351 666.965,505.327 660.745,507.512C657.057,510.704 650.072,512.674 648.523,516.725C643.847,518.24 639.239,520.952 635.863,522.467C560.263,526.858 514.549,561.863 500.489,627.795C512.456,628.514 520.643,634.769 525.573,641.348C530.808,646.078 535.478,652.402 537.473,659.159C539.916,664.628 541.793,672.38 544.535,676.295C545.492,681.874 550.256,685.18 551.486,689.196C555.114,691.758 558.648,696.599 561.685,698.452C567.469,703.656 575.455,707.928 581.707,711.466C587.187,715.61 593.443,719.801 595.477,726.171C597.666,730.862 599.446,737.328 598.455,743.919C598.455,749.763 598.449,757.467 598.449,762C597.619,780.162 606.715,787.517 617.208,788.004C627.701,788.491 640.566,782.461 647.424,775.351C647.822,773.989 649.587,773.502 651.581,773.499C653.575,773.496 654.864,773.421 654.489,774.795C637.859,780.964 631.404,797.021 607.164,794.474C602.663,791.751 596.882,789.588 596.55,783.966C593.7,778.56 591.675,770.942 592.547,763.06C592.547,756.18 592.551,747.6 592.551,742C593.081,731.846 588.983,724.509 585.431,719.657C581.492,716.027 576.48,711.514 572.201,709.487C535.999,698.964 542.476,644.503 505.953,635.451C509.139,636.875 507.896,637.327 505.72,637.448C503.544,637.569 500.428,637.359 499.947,637.452L502.551,636C500.016,635.211 497.002,636.469 496.802,636.486C489.908,642.957 482.345,650.131 476.62,656.602C469.758,660.727 467.192,670.347 461.639,674.584C457.152,680.063 455.193,689.731 452.494,695.783C451.331,704.587 447.698,712.58 449.457,723.09C450.02,731.81 448.364,744.252 450.483,750.19C455.804,760.587 447.739,772.642 447.45,781.98C442.9,786.027 441.18,793.524 436.789,796.492C431.006,797.245 427.874,802.551 424.651,804.574C422.317,808.43 416.951,810.867 413.72,812.526C405.603,818.515 406.191,826.012 409.858,831.88C413.525,837.748 420.165,842.855 423.615,845.394C426.422,860.888 405.322,853.369 405.449,865.006C405.447,873.949 414.811,874.884 414.452,882.951L414.449,884C410.022,890.399 409.375,897.631 411.88,902.649C414.385,907.668 420.468,911.009 428.876,909.537C438.813,917.519 427.667,925.969 430.494,939.216L431.449,940C432.602,941.585 433.923,945.819 434.621,946.399C438.439,951.864 446.895,954.482 452.894,956.54C459.742,956.853 467.865,956.553 472.099,955.542C480.959,954.436 486.608,948.951 496.958,950.549L498.551,949C507.012,945.793 515.737,942.889 527.86,944.533C536.316,948.084 546.138,950.897 550.546,957.312C554.894,963.612 558.079,972.281 561.525,978.279C564.991,983.411 566.43,991.897 568.487,997.199C570.628,1002.63 572.395,1010.08 574.517,1014.26C577.498,1017.82 578.564,1024.98 580.519,1028.27C582.245,1036.85 587.137,1043.13 585.458,1053.9C592.414,1061.78 584.268,1068.78 585.454,1078.07C585.361,1087.6 580.397,1093.23 577.511,1098.75C575.378,1103.49 572.22,1108.69 569.575,1111.65C561.013,1127.28 535.451,1142.81 537.47,1157.15ZM567.765,915.502C568.306,916.151 567.702,916.373 566.547,916.472C565.391,916.571 564.08,916.519 563.162,916.474C582.071,903.447 601.648,887.215 608.247,859.492C609.565,860.944 609.002,869.277 608.478,870.825C607.386,875.334 606.08,882.387 603.529,886.715C601.514,889.591 598.921,894.728 595.612,897.609C592.733,902.09 586.622,905.831 581.719,909.526C577.881,910.934 573.387,914.588 567.765,915.502ZM1081.91,862.456L1080.55,864C1076.74,860.949 1079.28,860.403 1082.04,860.492C1084.8,860.581 1087.14,860.763 1081.91,862.456ZM1194.73,809.52C1195.22,810.294 1194.47,810.452 1193.09,810.499C1191.72,810.545 1190.23,810.462 1189.24,810.503C1190.03,804.548 1197.12,803.832 1201.37,804.315C1205.62,804.798 1206.51,806.498 1194.73,809.52ZM460.888,735.461L459.551,737C454.231,730.019 456.769,725.612 462.247,722.171C467.724,718.73 475.765,716.777 481.173,715.523C483.879,714.269 493.468,713.837 494.66,715.433C508.543,717.342 520.806,724.7 525.7,734.462C516.515,731.451 507.72,725.175 496.076,723.455C490.442,722.71 484.369,724.807 479.843,726.472C473.219,727.904 467.453,732.743 460.888,735.461ZM1016.45,629.948C1016.79,631.003 1016.21,630.615 1015.04,630.531C1013.87,630.447 1012.66,631.269 1012.99,631.551C1011.69,630.518 1013.01,629.066 1014.39,628.493C1015.77,627.921 1016.67,627.626 1016.45,629.948ZM1089.59,579.633L1088.55,581C1084.99,579.797 1085.9,578.401 1087.65,577.627C1089.41,576.853 1091.06,576.334 1089.59,579.633Z" style="fill:rgb(184,107,71);"/>
        </g>
        <g transform="matrix(2.666667,0,0,2.666667,-1691.401017,-1689.819288)">
            <path d="M540,1157L541,1156L540,1157Z" style="fill:rgb(223,216,199);"/>
        </g>
        <g transform="matrix(2.666667,0,0,2.666667,-1691.401017,-1689.819288)">
            <path d="M542,1156L544,1155L542,1156Z" style="fill:rgb(223,216,199);"/>
        </g>
        <g transform="matrix(2.666667,0,0,2.666667,-1691.401017,-1689.819288)">
            <path d="M575,1144L577,1143L575,1144Z" style="fill:rgb(223,216,199);"/>
        </g>
        <g transform="matrix(2.666667,0,0,2.666667,-1691.401017,-1689.819288)">
            <path d="M578,1143L579,1142L578,1143Z" style="fill:rgb(223,216,199);"/>
        </g>
        <g transform="matrix(2.666667,0,0,2.666667,-1691.401017,-1689.819288)">
            <path d="M708.729,1105.48C709.602,1105.63 711.239,1105.68 712.154,1105.51C713.069,1105.35 713.803,1104 713.271,1103.52C712.398,1103.37 710.761,1103.32 709.846,1103.49C708.931,1103.65 708.197,1105 708.729,1105.48Z" style="fill:rgb(223,216,199);"/>
        </g>
        <g transform="matrix(2.666667,0,0,2.666667,-1691.401017,-1689.819288)">
            <path d="M849,1015L850,1014L849,1015Z" style="fill:rgb(223,216,199);"/>
        </g>
        <g transform="matrix(2.666667,0,0,2.666667,-1691.401017,-1689.819288)">
            <path d="M847,1014L848,1013L847,1014Z" style="fill:rgb(223,216,199);"/>
        </g>
        <g transform="matrix(2.666667,0,0,2.666667,-1691.401017,-1689.819288)">
            <path d="M767,1013L768,1012L767,1013Z" style="fill:rgb(223,216,199);"/>
        </g>
        <g transform="matrix(2.666667,0,0,2.666667,-1691.401017,-1689.819288)">
            <path d="M845,1013L846,1012L845,1013Z" style="fill:rgb(223,216,199);"/>
        </g>
        <g transform="matrix(2.666667,0,0,2.666667,-1691.401017,-1689.819288)">
            <path d="M765,1012L766,1011L765,1012Z" style="fill:rgb(223,216,199);"/>
        </g>
        <g transform="matrix(2.666667,0,0,2.666667,-1691.401017,-1689.819288)">
            <path d="M803,1012L804,1012L803,1011L803,1012Z" style="fill:rgb(223,216,199);"/>
        </g>
        <g transform="matrix(2.666667,0,0,2.666667,-1691.401017,-1689.819288)">
            <path d="M843,1012L844,1011L843,1012Z" style="fill:rgb(223,216,199);"/>
        </g>
        <g transform="matrix(2.666667,0,0,2.666667,-1691.401017,-1689.819288)">
            <path d="M763,1011L764,1010L763,1011Z" style="fill:rgb(223,216,199);"/>
        </g>
        <g transform="matrix(2.666667,0,0,2.666667,-1691.401017,-1689.819288)">
            <path d="M841,1011L842,1010L841,1011Z" style="fill:rgb(223,216,199);"/>
        </g>
        <g transform="matrix(2.666667,0,0,2.666667,-1691.401017,-1689.819288)">
            <path d="M761,1010L762,1009L761,1010Z" style="fill:rgb(223,216,199);"/>
        </g>
        <g transform="matrix(2.666667,0,0,2.666667,-1691.401017,-1689.819288)">
            <path d="M839,1010L839,1009L839,1010Z" style="fill:rgb(223,216,199);"/>
        </g>
        <g transform="matrix(2.666667,0,0,2.666667,-1691.401017,-1689.819288)">
            <path d="M759,1009L759,1008L759,1009Z" style="fill:rgb(223,216,199);"/>
        </g>
        <g transform="matrix(2.666667,0,0,2.666667,-1691.401017,-1689.819288)">
            <path d="M837,1009L839,1009L837,1008L837,1009Z" style="fill:rgb(223,216,199);"/>
        </g>
        <g transform="matrix(2.666667,0,0,2.666667,-1691.401017,-1689.819288)">
            <path d="M757,1008L759,1008L757,1007L757,1008Z" style="fill:rgb(223,216,199);"/>
        </g>
        <g transform="matrix(2.666667,0,0,2.666667,-1691.401017,-1689.819288)">
            <path d="M756,1007L757,1007L756,1006L756,1007Z" style="fill:rgb(223,216,199);"/>
        </g>
        <g transform="matrix(2.666667,0,0,2.666667,-1691.401017,-1689.819288)">
            <path d="M783,1001L784,1001L783,1000L783,1001Z" style="fill:rgb(223,216,199);"/>
        </g>
        <g transform="matrix(2.666667,0,0,2.666667,-1691.401017,-1689.819288)">
            <path d="M781.001,1000.55L783.551,1000C778.857,997.907 777.724,994.45 779.241,991.736C780.757,989.022 784.55,987.571 790.176,989.522C789.829,988.228 784.176,987.246 781.882,986.462C780.08,988.427 772.99,986.917 771.187,987.482C771.346,986.441 772.801,987.409 774.472,987.494C776.142,987.579 778.274,987.64 778.433,987.34C770.377,984.696 768.637,987.858 770.618,991.771C772.599,995.684 777.869,1000.56 781.001,1000.55Z" style="fill:rgb(223,216,199);"/>
        </g>
        <g transform="matrix(2.666667,0,0,2.666667,-1691.401017,-1689.819288)">
            <path d="M878,993L879,993L878,992L878,993Z" style="fill:rgb(223,216,199);"/>
        </g>
        <g transform="matrix(2.666667,0,0,2.666667,-1691.401017,-1689.819288)">
            <path d="M876.07,991.546C878.052,988.722 880.773,984.631 885.133,985.534C883.465,983.951 878.884,982.837 876.052,983.949C873.221,985.062 872.076,988.412 876.07,991.546Z" style="fill:rgb(223,216,199);"/>
        </g>
        <g transform="matrix(2.666667,0,0,2.666667,-1691.401017,-1689.819288)">
            <path d="M734,988L734,987L734,988Z" style="fill:rgb(223,216,199);"/>
        </g>
        <g transform="matrix(2.666667,0,0,2.666667,-1691.401017,-1689.819288)">
            <path d="M770.496,987.779C772.298,987.213 780.461,989.448 782.264,987.484L777.449,987C777.29,987.3 776.198,986.479 774.528,986.394C772.857,986.309 770.655,986.738 770.496,987.779Z" style="fill:rgb(239,220,202);"/>
        </g>
        <g transform="matrix(2.666667,0,0,2.666667,-1691.401017,-1689.819288)">
            <path d="M733,987L734,987L733,986L733,987Z" style="fill:rgb(223,216,199);"/>
        </g>
        <g transform="matrix(2.666667,0,0,2.666667,-1691.401017,-1689.819288)">
            <path d="M732,986L733,986L732,985L732,986Z" style="fill:rgb(223,216,199);"/>
        </g>
        <g transform="matrix(2.666667,0,0,2.666667,-1691.401017,-1689.819288)">
            <path d="M891.551,986C896.784,985.389 905.789,987.609 908.219,985.505C904.043,985.505 896.498,984.449 891,984.449L891.551,986Z" style="fill:rgb(223,216,199);"/>
        </g>
        <g transform="matrix(2.666667,0,0,2.666667,-1691.401017,-1689.819288)">
            <path d="M730,985L732.551,985C732.678,984.155 731.654,983.067 730.9,982.737C730.146,982.406 728.781,982.393 728.67,982.559L730,985Z" style="fill:rgb(223,216,199);"/>
        </g>
        <g transform="matrix(2.666667,0,0,2.666667,-1691.401017,-1689.819288)">
            <path d="M719,976L719,975L719,976Z" style="fill:rgb(223,216,199);"/>
        </g>
        <g transform="matrix(2.666667,0,0,2.666667,-1691.401017,-1689.819288)">
            <path d="M716.484,975.193L719.551,975C710.422,929.752 669.513,918.359 679.544,855.086C680.948,847.738 682.599,838.385 686.469,832.289C688.334,828.554 691.413,822.859 692.54,817.106C693.529,812.872 692.72,808.812 691.641,807.711C690.563,806.61 688.13,808.283 687.455,813.921C684.042,816.815 682.08,823.535 678.599,827.622C673.881,831.309 668.927,837.235 663.646,841.578C659.18,845.517 653.394,850.26 644.961,851.451C640.502,851.451 633.917,851.479 630.823,851.479C625.538,856.356 631.608,859.576 639.249,859.556C646.891,859.535 656.763,857.065 658.48,853.27C666.928,847.589 669.719,849.647 671.381,855.15C673.043,860.654 672.546,869.328 672.449,876.993C671.538,882.438 674.366,887.167 673.455,893.923C675.762,898.625 676.098,908.343 678.489,914.206C681.541,923.007 687.162,931.675 692.548,939.315C695.325,943.547 700.13,948.18 701.459,955.105C703.075,960.498 706.388,967.902 708.995,973.551C710.05,971.373 711.729,971.345 713.421,972.152C715.113,972.959 716.307,974.243 716.484,975.193Z" style="fill:rgb(223,216,199);"/>
        </g>
        <g transform="matrix(2.666667,0,0,2.666667,-1691.401017,-1689.819288)">
            <path d="M453.551,957C460.046,956.616 469.849,958.709 472.237,955.497C468.003,956.508 459.86,955.762 453.013,955.449L453.551,957Z" style="fill:rgb(223,216,199);"/>
        </g>
        <g transform="matrix(2.666667,0,0,2.666667,-1691.401017,-1689.819288)">
            <path d="M497,950L498,949L497,950Z" style="fill:rgb(223,216,199);"/>
        </g>
        <g transform="matrix(2.666667,0,0,2.666667,-1691.401017,-1689.819288)">
            <path d="M435,947L435,946L435,947Z" style="fill:rgb(223,216,199);"/>
        </g>
        <g transform="matrix(2.666667,0,0,2.666667,-1691.401017,-1689.819288)">
            <path d="M434,946L435,946L434,946Z" style="fill:rgb(223,216,199);"/>
        </g>
        <g transform="matrix(2.666667,0,0,2.666667,-1691.401017,-1689.819288)">
            <path d="M433,944L434,943L433,944Z" style="fill:rgb(223,216,199);"/>
        </g>
        <g transform="matrix(2.666667,0,0,2.666667,-1691.401017,-1689.819288)">
            <path d="M432,942L432,940L432,942Z" style="fill:rgb(223,216,199);"/>
        </g>
        <g transform="matrix(2.666667,0,0,2.666667,-1691.401017,-1689.819288)">
            <path d="M942.551,941C946.225,940.499 954.458,942.359 958.133,940.534C952.981,940.534 945.816,939.449 942,939.449L942.551,941Z" style="fill:rgb(241,219,202);"/>
        </g>
        <g transform="matrix(2.666667,0,0,2.666667,-1691.401017,-1689.819288)">
            <path d="M431,940L432,940L431,939L431,940Z" style="fill:rgb(223,216,199);"/>
        </g>
        <g transform="matrix(2.666667,0,0,2.666667,-1691.401017,-1689.819288)">
            <path d="M964,929L965,928L964,929Z" style="fill:rgb(223,216,199);"/>
        </g>
        <g transform="matrix(2.666667,0,0,2.666667,-1691.401017,-1689.819288)">
            <path d="M562.807,916.484C563.725,916.529 565.485,917.668 566.641,917.569C567.796,917.471 568.864,916.204 568.324,915.554C573.945,914.641 578.409,911.899 582.248,910.492C587.15,906.796 593.568,902.803 596.447,898.322C599.755,895.441 602.44,890.186 604.455,887.311C607.006,882.982 608.443,875.64 609.535,871.131C610.059,869.583 609.224,859.909 607.906,858.457C601.307,886.18 581.716,903.458 562.807,916.484Z" style="fill:rgb(228,223,211);"/>
        </g>
        <g transform="matrix(2.666667,0,0,2.666667,-1691.401017,-1689.819288)">
            <path d="M1011,915L1011,914L1011,915Z" style="fill:rgb(223,216,199);"/>
        </g>
        <g transform="matrix(2.666667,0,0,2.666667,-1691.401017,-1689.819288)">
            <path d="M415,884L415,883L415,884Z" style="fill:rgb(223,216,199);"/>
        </g>
        <g transform="matrix(2.666667,0,0,2.666667,-1691.401017,-1689.819288)">
            <path d="M1148,879L1149,879L1148,878L1148,879Z" style="fill:rgb(223,216,199);"/>
        </g>
        <g transform="matrix(2.666667,0,0,2.666667,-1691.401017,-1689.819288)">
            <path d="M1147,878L1148,878L1147,877L1147,878Z" style="fill:rgb(223,216,199);"/>
        </g>
        <g transform="matrix(2.666667,0,0,2.666667,-1691.401017,-1689.819288)">
            <path d="M1146,877L1147,877L1146,876L1146,877Z" style="fill:rgb(223,216,199);"/>
        </g>
        <g transform="matrix(2.666667,0,0,2.666667,-1691.401017,-1689.819288)">
            <path d="M1144,876L1144,875L1144,876Z" style="fill:rgb(223,216,199);"/>
        </g>
        <g transform="matrix(2.666667,0,0,2.666667,-1691.401017,-1689.819288)">
            <path d="M1143,875L1144,875L1143,874L1143,875Z" style="fill:rgb(223,216,199);"/>
        </g>
        <g transform="matrix(2.666667,0,0,2.666667,-1691.401017,-1689.819288)">
            <path d="M1142,874L1143,874L1142,873L1142,874Z" style="fill:rgb(223,216,199);"/>
        </g>
        <g transform="matrix(2.666667,0,0,2.666667,-1691.401017,-1689.819288)">
            <path d="M1140,873L1140,872L1140,873Z" style="fill:rgb(223,216,199);"/>
        </g>
        <g transform="matrix(2.666667,0,0,2.666667,-1691.401017,-1689.819288)">
            <path d="M405,868L406,865L405,868Z" style="fill:rgb(223,216,199);"/>
        </g>
        <g transform="matrix(2.666667,0,0,2.666667,-1691.401017,-1689.819288)">
            <path d="M1079.8,864.511L1082.55,863C1087.78,861.307 1084.84,859.481 1082.08,859.391C1079.32,859.302 1075.98,861.46 1079.8,864.511Z" style="fill:rgb(236,221,205);"/>
        </g>
        <g transform="matrix(2.666667,0,0,2.666667,-1691.401017,-1689.819288)">
            <path d="M1129,864L1130,864L1129,863L1129,864Z" style="fill:rgb(223,216,199);"/>
        </g>
        <g transform="matrix(2.666667,0,0,2.666667,-1691.401017,-1689.819288)">
            <path d="M1034,860L1038,860L1036,859L1034,859L1034,860Z" style="fill:rgb(255,214,185);"/>
        </g>
        <g transform="matrix(2.666667,0,0,2.666667,-1691.401017,-1689.819288)">
            <path d="M1120,858L1121,858L1120,857L1120,858Z" style="fill:rgb(223,216,199);"/>
        </g>
        <g transform="matrix(2.666667,0,0,2.666667,-1691.401017,-1689.819288)">
            <path d="M1118,857L1118,856L1118,857Z" style="fill:rgb(223,216,199);"/>
        </g>
        <g transform="matrix(2.666667,0,0,2.666667,-1691.401017,-1689.819288)">
            <path d="M1114,855L1115,855L1114,854L1114,855Z" style="fill:rgb(223,216,199);"/>
        </g>
        <g transform="matrix(2.666667,0,0,2.666667,-1691.401017,-1689.819288)">
            <path d="M630.876,851.464C633.97,851.464 640.746,852.511 645.205,852.511C644.013,850.914 633.582,850.21 630.876,851.464Z" style="fill:rgb(178,108,77);"/>
        </g>
        <g transform="matrix(2.666667,0,0,2.666667,-1691.401017,-1689.819288)">
            <path d="M1101,851L1103,851L1101,850L1101,851Z" style="fill:rgb(223,216,199);"/>
        </g>
        <g transform="matrix(2.666667,0,0,2.666667,-1691.401017,-1689.819288)">
            <path d="M1031.82,844.478C1034.19,844.478 1040.47,845.496 1044.24,845.496C1044.01,844.718 1041.26,843.335 1038.57,843.362C1035.88,843.389 1032.82,843.807 1031.82,844.478Z" style="fill:rgb(166,114,87);"/>
        </g>
        <g transform="matrix(2.666667,0,0,2.666667,-1691.401017,-1689.819288)">
            <path d="M1111,831.551C1120.53,830.773 1130.61,828.686 1135.4,824.378C1133.01,819.197 1120.45,821.399 1115.08,820.456C1111.11,819.957 1107.2,822.601 1106.03,825.141C1104.87,827.681 1106.35,831.212 1111,831.551Z" style="fill:rgb(180,108,70);"/>
        </g>
        <g transform="matrix(2.666667,0,0,2.666667,-1691.401017,-1689.819288)">
            <path d="M1087,825L1088,824L1087,825Z" style="fill:rgb(223,216,199);"/>
        </g>
        <g transform="matrix(2.666667,0,0,2.666667,-1691.401017,-1689.819288)">
            <path d="M1179,821L1181,820L1179,820L1179,821Z" style="fill:rgb(223,216,199);"/>
        </g>
        <g transform="matrix(2.666667,0,0,2.666667,-1691.401017,-1689.819288)">
            <path d="M1165,818L1165,817L1165,818Z" style="fill:rgb(223,216,199);"/>
        </g>
        <g transform="matrix(2.666667,0,0,2.666667,-1691.401017,-1689.819288)">
            <path d="M1157,815L1158,814L1157,815Z" style="fill:rgb(223,216,199);"/>
        </g>
        <g transform="matrix(2.666667,0,0,2.666667,-1691.401017,-1689.819288)">
            <path d="M1154,814L1156,814L1154,814Z" style="fill:rgb(223,216,199);"/>
        </g>
        <g transform="matrix(2.666667,0,0,2.666667,-1691.401017,-1689.819288)">
            <path d="M1152,813L1153,812L1152,813Z" style="fill:rgb(223,216,199);"/>
        </g>
        <g transform="matrix(2.666667,0,0,2.666667,-1691.401017,-1689.819288)">
            <path d="M1147.93,812.547L1151.55,812C1151.73,810.79 1149.89,810.159 1148.89,810.413C1147.89,810.666 1147.12,812.352 1147.93,812.547Z" style="fill:rgb(223,216,199);"/>
        </g>
        <g transform="matrix(2.666667,0,0,2.666667,-1691.401017,-1689.819288)">
            <path d="M1144,811L1147,811L1144,810L1144,811Z" style="fill:rgb(223,216,199);"/>
        </g>
        <g transform="matrix(2.666667,0,0,2.666667,-1691.401017,-1689.819288)">
            <path d="M1188.47,810.852C1189.46,810.811 1191.76,811.646 1193.13,811.6C1194.51,811.553 1195.88,810.387 1195.39,809.614C1207.17,806.592 1205.74,803.703 1201.5,803.22C1197.25,802.737 1189.27,804.898 1188.47,810.852Z" style="fill:rgb(239,220,202);"/>
        </g>
        <g transform="matrix(2.666667,0,0,2.666667,-1691.401017,-1689.819288)">
            <path d="M1115,810L1117,809L1115,810Z" style="fill:rgb(223,216,199);"/>
        </g>
        <g transform="matrix(2.666667,0,0,2.666667,-1691.401017,-1689.819288)">
            <path d="M1142,810L1144,810L1142,810Z" style="fill:rgb(223,216,199);"/>
        </g>
        <g transform="matrix(2.666667,0,0,2.666667,-1691.401017,-1689.819288)">
            <path d="M1117.85,808.471C1121.97,806.401 1131.76,809.047 1136.14,808.534C1133.62,807.474 1120.27,805.243 1117.85,808.471Z" style="fill:rgb(237,221,201);"/>
        </g>
        <g transform="matrix(2.666667,0,0,2.666667,-1691.401017,-1689.819288)">
            <path d="M1139,809L1141,809L1139,808L1139,809Z" style="fill:rgb(223,216,199);"/>
        </g>
        <g transform="matrix(2.666667,0,0,2.666667,-1691.401017,-1689.819288)">
            <path d="M1223,796L1224,795L1223,796Z" style="fill:rgb(223,216,199);"/>
        </g>
        <g transform="matrix(2.666667,0,0,2.666667,-1691.401017,-1689.819288)">
            <path d="M606.812,795.518C631.052,798.064 638.47,781.71 655.1,775.541C652.701,775.541 647.732,774.482 646.814,774.482C639.955,781.592 627.752,787.391 617.259,786.904C606.766,786.416 598.72,780.187 599.55,762.025C599.55,757.492 599.551,749.844 599.551,744C600.541,737.409 598.691,730.462 596.501,725.772C594.467,719.401 587.792,714.69 582.312,710.546C576.06,707.008 568.128,702.774 562.344,697.57C559.306,695.718 556.005,691.16 552.377,688.598C551.148,684.582 546.498,681.477 545.541,675.899C542.798,671.983 540.948,664.248 538.505,658.78C536.51,652.023 531.623,645.339 526.388,640.609C521.457,634.029 512.75,628.213 500.782,627.494C499.544,630.368 496.678,634.384 496.459,636.897C496.66,636.88 499.381,635.755 501.915,636.544L505.449,636C541.972,645.051 535.608,699.994 571.81,710.517C576.089,712.544 580.67,716.758 584.609,720.388C588.161,725.24 591.98,731.817 591.45,741.971C591.45,747.572 591.449,756.12 591.449,763C590.577,770.881 592.657,778.839 595.507,784.244C595.839,789.866 602.311,792.794 606.812,795.518Z" style="fill:rgb(223,216,199);"/>
        </g>
        <g transform="matrix(2.666667,0,0,2.666667,-1691.401017,-1689.819288)">
            <path d="M1210,792L1211,791L1210,792Z" style="fill:rgb(223,216,199);"/>
        </g>
        <g transform="matrix(2.666667,0,0,2.666667,-1691.401017,-1689.819288)">
            <path d="M1226,792L1227,791L1226,792Z" style="fill:rgb(223,216,199);"/>
        </g>
        <g transform="matrix(2.666667,0,0,2.666667,-1691.401017,-1689.819288)">
            <path d="M1211,791L1212,790L1211,791Z" style="fill:rgb(223,216,199);"/>
        </g>
        <g transform="matrix(2.666667,0,0,2.666667,-1691.401017,-1689.819288)">
            <path d="M1213,790L1214,789L1213,790Z" style="fill:rgb(223,216,199);"/>
        </g>
        <g transform="matrix(2.666667,0,0,2.666667,-1691.401017,-1689.819288)">
            <path d="M1052.55,776C1054.35,775.434 1061.46,777.448 1063.26,775.484C1059.84,775.484 1054,774.449 1052,774.449L1052.55,776Z" style="fill:rgb(251,217,192);"/>
        </g>
        <g transform="matrix(2.666667,0,0,2.666667,-1691.401017,-1689.819288)">
            <path d="M646.525,774.722C647.443,774.722 652.839,775.496 655.239,775.496C655.615,774.123 653.574,772.395 651.579,772.398C649.585,772.401 646.923,773.36 646.525,774.722Z" style="fill:rgb(229,210,197);"/>
        </g>
        <g transform="matrix(2.666667,0,0,2.666667,-1691.401017,-1689.819288)">
            <path d="M1104.55,765C1110.79,764.58 1120.84,766.22 1127.07,764.546C1119.5,764.546 1110.31,763.449 1104,763.449L1104.55,765Z" style="fill:rgb(175,110,78);"/>
        </g>
        <g transform="matrix(2.666667,0,0,2.666667,-1691.401017,-1689.819288)">
            <path d="M1052,762C1054.37,762 1060.47,762.497 1064.24,762.497C1063.58,760.417 1055.62,760.988 1052.04,760.451L1052,762Z" style="fill:rgb(163,115,88);"/>
        </g>
        <g transform="matrix(2.666667,0,0,2.666667,-1691.401017,-1689.819288)">
            <path d="M1091,754L1092,753L1091,754Z" style="fill:rgb(223,216,199);"/>
        </g>
        <g transform="matrix(2.666667,0,0,2.666667,-1691.401017,-1689.819288)">
            <path d="M1092,753L1093,752L1092,753Z" style="fill:rgb(223,216,199);"/>
        </g>
        <g transform="matrix(2.666667,0,0,2.666667,-1691.401017,-1689.819288)">
            <path d="M458.698,737.46L461.551,736C468.115,733.282 473.526,728.962 480.151,727.53C484.676,725.865 490.289,723.801 495.924,724.545C507.568,726.266 516.976,731.516 526.161,734.526C521.267,724.765 508.92,716.359 495.038,714.451C490.579,714.451 484.032,714.453 480.938,714.453C475.529,715.707 467.138,717.798 461.661,721.239C456.183,724.68 453.379,730.479 458.698,737.46Z" style="fill:rgb(225,224,213);"/>
        </g>
        <g transform="matrix(2.666667,0,0,2.666667,-1691.401017,-1689.819288)">
            <path d="M480.876,714.464C483.97,714.464 490.746,715.511 495.205,715.511C494.013,713.914 483.582,713.21 480.876,714.464Z" style="fill:rgb(253,216,192);"/>
        </g>
        <g transform="matrix(2.666667,0,0,2.666667,-1691.401017,-1689.819288)">
            <path d="M1161.99,698.551C1163.54,698.094 1170.97,699.402 1172.38,697.396C1157.12,692.638 1152.03,672.701 1134.75,673.509C1137.83,686.37 1149.3,694.159 1161.99,698.551Z" style="fill:rgb(185,105,68);"/>
        </g>
        <g transform="matrix(2.666667,0,0,2.666667,-1691.401017,-1689.819288)">
            <path d="M1123,676L1124,676L1123,675L1123,676Z" style="fill:rgb(223,216,199);"/>
        </g>
        <g transform="matrix(2.666667,0,0,2.666667,-1691.401017,-1689.819288)">
            <path d="M1122,675L1123,675L1122,674L1122,675Z" style="fill:rgb(223,216,199);"/>
        </g>
        <g transform="matrix(2.666667,0,0,2.666667,-1691.401017,-1689.819288)">
            <path d="M1003.55,653C1004.98,652.423 1011.89,654.447 1013.32,652.451C1010.24,652.451 1004.64,651.449 1003,651.449L1003.55,653Z" style="fill:rgb(242,219,200);"/>
        </g>
        <g transform="matrix(2.666667,0,0,2.666667,-1691.401017,-1689.819288)">
            <path d="M500.551,638C501.032,637.907 503.605,638.669 505.781,638.548C507.957,638.427 509.306,636.886 506.12,635.463L502,636L500.551,638Z" style="fill:rgb(180,108,75);"/>
        </g>
        <g transform="matrix(2.666667,0,0,2.666667,-1691.401017,-1689.819288)">
            <path d="M1030,637L1031,636L1030,637Z" style="fill:rgb(223,216,199);"/>
        </g>
        <g transform="matrix(2.666667,0,0,2.666667,-1691.401017,-1689.819288)">
            <path d="M1038,634L1039,633L1038,634Z" style="fill:rgb(223,216,199);"/>
        </g>
        <g transform="matrix(2.666667,0,0,2.666667,-1691.401017,-1689.819288)">
            <path d="M1040,633L1041,632L1040,633Z" style="fill:rgb(223,216,199);"/>
        </g>
        <g transform="matrix(2.666667,0,0,2.666667,-1691.401017,-1689.819288)">
            <path d="M1012.75,631.491C1013.62,631.646 1015.24,631.684 1016.15,631.515C1017.07,631.345 1017.94,630.109 1017.41,629.633C1017.63,627.311 1015.35,626.903 1013.97,627.476C1012.59,628.048 1011.45,630.459 1012.75,631.491Z" style="fill:rgb(239,220,202);"/>
        </g>
        <g transform="matrix(2.666667,0,0,2.666667,-1691.401017,-1689.819288)">
            <path d="M1053,625L1054,624L1053,625Z" style="fill:rgb(223,216,199);"/>
        </g>
        <g transform="matrix(2.666667,0,0,2.666667,-1691.401017,-1689.819288)">
            <path d="M1055,624L1056,623L1055,624Z" style="fill:rgb(223,216,199);"/>
        </g>
        <g transform="matrix(2.666667,0,0,2.666667,-1691.401017,-1689.819288)">
            <path d="M1055.82,623.522C1056.91,623.887 1058.29,623.237 1058.79,622.653C1059.29,622.069 1059.26,620.506 1059.18,620.478C1058.09,620.113 1056.71,620.763 1056.21,621.347C1055.71,621.931 1055.74,623.494 1055.82,623.522Z" style="fill:rgb(223,216,199);"/>
        </g>
        <g transform="matrix(2.666667,0,0,2.666667,-1691.401017,-1689.819288)">
            <path d="M1059,621L1060,620L1059,621Z" style="fill:rgb(223,216,199);"/>
        </g>
        <g transform="matrix(2.666667,0,0,2.666667,-1691.401017,-1689.819288)">
            <path d="M1135,621L1137,621L1135,620L1135,621Z" style="fill:rgb(223,216,199);"/>
        </g>
        <g transform="matrix(2.666667,0,0,2.666667,-1691.401017,-1689.819288)">
            <path d="M1060,620L1061,619L1060,620Z" style="fill:rgb(223,216,199);"/>
        </g>
        <g transform="matrix(2.666667,0,0,2.666667,-1691.401017,-1689.819288)">
            <path d="M1160,620L1161,619L1160,620Z" style="fill:rgb(223,216,199);"/>
        </g>
        <g transform="matrix(2.666667,0,0,2.666667,-1691.401017,-1689.819288)">
            <path d="M1061,619L1062,618L1061,619Z" style="fill:rgb(223,216,199);"/>
        </g>
        <g transform="matrix(2.666667,0,0,2.666667,-1691.401017,-1689.819288)">
            <path d="M1162,619L1163,618L1162,619Z" style="fill:rgb(223,216,199);"/>
        </g>
        <g transform="matrix(2.666667,0,0,2.666667,-1691.401017,-1689.819288)">
            <path d="M1164,618L1165,617L1164,618Z" style="fill:rgb(223,216,199);"/>
        </g>
        <g transform="matrix(2.666667,0,0,2.666667,-1691.401017,-1689.819288)">
            <path d="M1166,617L1167,616L1166,617Z" style="fill:rgb(223,216,199);"/>
        </g>
        <g transform="matrix(2.666667,0,0,2.666667,-1691.401017,-1689.819288)">
            <path d="M1067,615L1068,614L1067,615Z" style="fill:rgb(223,216,199);"/>
        </g>
        <g transform="matrix(2.666667,0,0,2.666667,-1691.401017,-1689.819288)">
            <path d="M1069,614L1070,613L1069,614Z" style="fill:rgb(223,216,199);"/>
        </g>
        <g transform="matrix(2.666667,0,0,2.666667,-1691.401017,-1689.819288)">
            <path d="M1070,613L1071,612L1070,613Z" style="fill:rgb(223,216,199);"/>
        </g>
        <g transform="matrix(2.666667,0,0,2.666667,-1691.401017,-1689.819288)">
            <path d="M1072,612L1073,611L1072,612Z" style="fill:rgb(223,216,199);"/>
        </g>
        <g transform="matrix(2.666667,0,0,2.666667,-1691.401017,-1689.819288)">
            <path d="M1116,612L1116,611L1116,612Z" style="fill:rgb(223,216,199);"/>
        </g>
        <g transform="matrix(2.666667,0,0,2.666667,-1691.401017,-1689.819288)">
            <path d="M1074,611L1075,610L1074,611Z" style="fill:rgb(223,216,199);"/>
        </g>
        <g transform="matrix(2.666667,0,0,2.666667,-1691.401017,-1689.819288)">
            <path d="M1112,611L1113,610L1112,611Z" style="fill:rgb(223,216,199);"/>
        </g>
        <g transform="matrix(2.666667,0,0,2.666667,-1691.401017,-1689.819288)">
            <path d="M1110,610L1110,609L1110,610Z" style="fill:rgb(223,216,199);"/>
        </g>
        <g transform="matrix(2.666667,0,0,2.666667,-1691.401017,-1689.819288)">
            <path d="M1107,609L1107,608L1107,609Z" style="fill:rgb(223,216,199);"/>
        </g>
        <g transform="matrix(2.666667,0,0,2.666667,-1691.401017,-1689.819288)">
            <path d="M1100,608L1103,608L1100,607L1100,608Z" style="fill:rgb(223,216,199);"/>
        </g>
        <g transform="matrix(2.666667,0,0,2.666667,-1691.401017,-1689.819288)">
            <path d="M1087.91,581.543L1090.55,580C1092.02,576.701 1088.97,575.845 1087.21,576.619C1085.45,577.393 1084.35,580.34 1087.91,581.543Z" style="fill:rgb(240,220,198);"/>
        </g>
        <g transform="matrix(2.666667,0,0,2.666667,-1691.401017,-1689.819288)">
            <path d="M960.729,569.479C961.602,569.634 963.239,569.684 964.154,569.515C965.069,569.345 965.803,567.997 965.271,567.521C964.398,567.366 962.761,567.316 961.846,567.485C960.931,567.655 960.197,569.003 960.729,569.479Z" style="fill:rgb(223,216,199);"/>
        </g>
        <g transform="matrix(2.666667,0,0,2.666667,-1691.401017,-1689.819288)">
            <path d="M966,568L967,567L966,568Z" style="fill:rgb(223,216,199);"/>
        </g>
        <g transform="matrix(2.666667,0,0,2.666667,-1691.401017,-1689.819288)">
            <path d="M969,567L970,566L969,567Z" style="fill:rgb(223,216,199);"/>
        </g>
        <g transform="matrix(2.666667,0,0,2.666667,-1691.401017,-1689.819288)">
            <path d="M900.869,561.465C903.424,560.925 911.577,563.44 914.131,561.535C911.576,562.075 903.423,559.56 900.869,561.465Z" style="fill:rgb(254,216,190);"/>
        </g>
        <g transform="matrix(2.666667,0,0,2.666667,-1691.401017,-1689.819288)">
            <path d="M977.788,562.508L979,562L981.551,561C985.786,556.308 981.863,553.881 978.776,554.238C975.688,554.596 972.672,558.247 977.788,562.508Z" style="fill:rgb(223,216,199);"/>
        </g>
        <g transform="matrix(2.666667,0,0,2.666667,-1691.401017,-1689.819288)">
            <path d="M982,561L983,560L982,561Z" style="fill:rgb(223,216,199);"/>
        </g>
        <g transform="matrix(2.666667,0,0,2.666667,-1691.401017,-1689.819288)">
            <path d="M984,560L985,559L984,560Z" style="fill:rgb(223,216,199);"/>
        </g>
        <g transform="matrix(2.666667,0,0,2.666667,-1691.401017,-1689.819288)">
            <path d="M989,557L990,556L989,557Z" style="fill:rgb(223,216,199);"/>
        </g>
        <g transform="matrix(2.666667,0,0,2.666667,-1691.401017,-1689.819288)">
            <path d="M1022,557L1024,557L1022,557Z" style="fill:rgb(223,216,199);"/>
        </g>
        <g transform="matrix(2.666667,0,0,2.666667,-1691.401017,-1689.819288)">
            <path d="M991,556L992,555L991,556Z" style="fill:rgb(223,216,199);"/>
        </g>
        <g transform="matrix(2.666667,0,0,2.666667,-1691.401017,-1689.819288)">
            <path d="M1017.93,556.547L1021.55,556C1021.73,554.79 1019.89,554.159 1018.89,554.413C1017.89,554.666 1017.12,556.352 1017.93,556.547Z" style="fill:rgb(223,216,199);"/>
        </g>
        <g transform="matrix(2.666667,0,0,2.666667,-1691.401017,-1689.819288)">
            <path d="M993,555L994,554L993,555Z" style="fill:rgb(223,216,199);"/>
        </g>
        <g transform="matrix(2.666667,0,0,2.666667,-1691.401017,-1689.819288)">
            <path d="M1016,555L1016,554L1016,555Z" style="fill:rgb(223,216,199);"/>
        </g>
        <g transform="matrix(2.666667,0,0,2.666667,-1691.401017,-1689.819288)">
            <path d="M997,554L998,553L997,554Z" style="fill:rgb(223,216,199);"/>
        </g>
        <g transform="matrix(2.666667,0,0,2.666667,-1691.401017,-1689.819288)">
            <path d="M1012,554L1012,553L1012,554Z" style="fill:rgb(223,216,199);"/>
        </g>
        <g transform="matrix(2.666667,0,0,2.666667,-1691.401017,-1689.819288)">
            <path d="M1029,547L1030,547L1029,546L1029,547Z" style="fill:rgb(223,216,199);"/>
        </g>
        <g transform="matrix(2.666667,0,0,2.666667,-1691.401017,-1689.819288)">
            <path d="M1026,545L1027,545L1026,544L1026,545Z" style="fill:rgb(223,216,199);"/>
        </g>
        <g transform="matrix(2.666667,0,0,2.666667,-1691.401017,-1689.819288)">
            <path d="M1024,544L1024,543L1024,544Z" style="fill:rgb(223,216,199);"/>
        </g>
        <g transform="matrix(2.666667,0,0,2.666667,-1691.401017,-1689.819288)">
            <path d="M1022,543L1022,542L1022,543Z" style="fill:rgb(223,216,199);"/>
        </g>
        <g transform="matrix(2.666667,0,0,2.666667,-1691.401017,-1689.819288)">
            <path d="M1014,539L1015,539L1014,538L1014,539Z" style="fill:rgb(223,216,199);"/>
        </g>
        <g transform="matrix(2.666667,0,0,2.666667,-1691.401017,-1689.819288)">
            <path d="M1002,535L1003,535L1002,534L1002,535Z" style="fill:rgb(223,216,199);"/>
        </g>
        <g transform="matrix(2.666667,0,0,2.666667,-1691.401017,-1689.819288)">
            <path d="M713.551,528C717.596,527.512 726.075,529.337 730.12,527.538C724.621,527.538 717.175,526.449 713,526.449L713.551,528Z" style="fill:rgb(251,217,192);"/>
        </g>
        <g transform="matrix(2.666667,0,0,2.666667,-1691.401017,-1689.819288)">
            <path d="M757.551,523C762.333,522.536 771.318,524.295 776.099,522.542L774,522C769.825,522 762.498,521.449 757,521.449L757.551,523Z" style="fill:rgb(177,109,76);"/>
        </g>
    </g>
</svg>
